<?xml version="1.0" encoding="utf-8"?>
<!-- Generator: Adobe Illustrator 16.0.0, SVG Export Plug-In . SVG Version: 6.00 Build 0)  -->
<!DOCTYPE svg PUBLIC "-//W3C//DTD SVG 1.1//EN" "http://www.w3.org/Graphics/SVG/1.1/DTD/svg11.dtd">
<svg version="1.1" id="Isolation_Mode" xmlns="http://www.w3.org/2000/svg" xmlns:xlink="http://www.w3.org/1999/xlink" x="0px"
	 y="0px" width="105px" height="105px" viewBox="0 0 105 105" enable-background="new 0 0 105 105" xml:space="preserve">
<g>
	<path fill="#0080CE" d="M13.072,5.891v88.873c0,3.252,2.625,5.892,5.89,5.892l72.966-0.004V5.891H13.072z"/>
	<path fill="#F6F8FB" d="M83.18,2.944v87.478H18.948c-2.386,0.006-4.329,1.954-4.329,4.342c0,2.396,1.948,4.344,4.343,4.344
		l68.59-0.003V2.944H83.18z"/>
	<path fill="#0093FF" d="M18.962,0c-3.246,0-5.89,2.647-5.89,5.891v88.873c0-3.241,2.62-5.88,5.871-5.892H83.18V0H18.962z"/>
	<rect x="18.942" fill="#0080CE" width="2.876" height="88.872"/>
	<polygon fill="#FF7059" points="21.819,94.764 21.819,105 26.157,100.655 30.504,105 30.506,105 30.506,94.764 	"/>
</g>
<g>
	<g>
		<path fill-rule="evenodd" clip-rule="evenodd" fill="#FFFFFF" d="M65.675,35.693c-0.754-3.994-2.89-6.278-6.285-7.616
			c-1.178-0.465-3.025-0.957-4.767-0.666c-2.418,0.404-4.162,1.029-5.725,2.237c-2.873,2.22-3.455,6.379-4.261,10.706
			c-0.151,1.375-0.302,2.751-0.453,4.127c-0.071,0.825-0.142,1.651-0.213,2.477c-0.411,2.377-0.489,4.8-1.119,6.871
			c-0.347,1.14-0.718,2.522-1.758,2.956c-0.608,0.254-1.475,0.069-2.077-0.026c-0.373,1.482-0.746,2.965-1.118,4.447v0.08
			c1.311,0.113,2.736,0.485,4.127,0.08c4.493-1.309,5.299-5.924,6.205-10.838c0.16-1.394,0.32-2.788,0.479-4.181
			c0.142-1.42,0.284-2.841,0.426-4.261c0.542-3.148,0.684-7.258,2.716-8.841c3.643-2.836,10.445-0.399,9.188,5.033
			c-0.837,3.619-5.048,3.563-9.533,3.515c-0.213,1.518-0.426,3.036-0.639,4.554v0.08c1.757,0.002,3.611,0.226,5.272-0.053
			c1.012-0.17,2-0.236,2.903-0.506c2.74-0.82,4.884-2.294,5.965-4.767c0.29-0.662,0.476-1.401,0.639-2.183
			C65.842,37.99,65.852,36.631,65.675,35.693z M39.338,46.851c3.437-0.561,3.275-5.553-0.453-5.486
			c-0.266,0.062-0.532,0.124-0.799,0.187c-0.659,0.271-1.246,0.834-1.518,1.491C35.8,44.902,37.386,47.169,39.338,46.851z"/>
	</g>
</g>
</svg>
