<?xml version="1.0" encoding="utf-8"?>
<!-- Generator: Adobe Illustrator 16.0.0, SVG Export Plug-In . SVG Version: 6.00 Build 0)  -->
<!DOCTYPE svg PUBLIC "-//W3C//DTD SVG 1.1//EN" "http://www.w3.org/Graphics/SVG/1.1/DTD/svg11.dtd">
<svg version="1.1" id="Isolation_Mode" xmlns="http://www.w3.org/2000/svg" xmlns:xlink="http://www.w3.org/1999/xlink" x="0px"
	 y="0px" width="82.35px" height="82.35px" viewBox="0 0 82.35 82.35" enable-background="new 0 0 82.35 82.35"
	 xml:space="preserve">
<g>
	<g>
		<g>
			<path fill-rule="evenodd" clip-rule="evenodd" fill="#FFFFFF" d="M76.277,20.138c-1.815-9.609-6.953-15.105-15.121-18.324
				c-2.834-1.119-7.279-2.303-11.469-1.602c-5.817,0.973-10.015,2.477-13.775,5.382c-6.913,5.341-8.312,15.349-10.251,25.759
				c-0.363,3.309-0.726,6.62-1.089,9.931c-0.171,1.985-0.342,3.972-0.512,5.958c-0.99,5.719-1.178,11.549-2.692,16.531
				c-0.834,2.742-1.729,6.068-4.23,7.112c-1.463,0.611-3.549,0.166-4.997-0.063c-0.897,3.566-1.794,7.134-2.69,10.699v0.193
				c3.153,0.271,6.583,1.166,9.931,0.192c10.811-3.15,12.751-14.253,14.929-26.078c0.384-3.353,0.77-6.708,1.154-10.06
				c0.342-3.417,0.683-6.835,1.024-10.253c1.303-7.575,1.645-17.462,6.536-21.272c8.765-6.825,25.131-0.96,22.106,12.11
				c-2.015,8.708-12.147,8.571-22.938,8.457c-0.513,3.653-1.025,7.306-1.538,10.958v0.192c4.227,0.005,8.688,0.544,12.685-0.128
				c2.435-0.409,4.812-0.567,6.985-1.218c6.593-1.974,11.751-5.52,14.352-11.469c0.697-1.592,1.146-3.372,1.538-5.252
				C76.679,25.665,76.704,22.394,76.277,20.138z M12.909,46.985c8.269-1.349,7.881-13.362-1.09-13.2
				c-0.639,0.149-1.28,0.298-1.921,0.45c-1.585,0.65-2.999,2.006-3.651,3.587C4.395,42.297,8.212,47.751,12.909,46.985z"/>
		</g>
	</g>
</g>
</svg>
